#!OML:ASF E:\emotionWalksFemale\Project 1\Capture day 1\Session 1\Female1.ASF
:FULLY-SPECIFIED
:DEGREES
242
root 8.62142 15.1676 41.7178 180.261 -10.4705 -179.498
lowerback 7.46854 1.83896 -0.0104815
upperback 0.41855 2.42556 0.359734
thorax -3.76867 1.19094 0.121668
lowerneck -2.86676 -3.94673 -7.68607
upperneck 2.58072 -5.16152 6.04158
head 1.73179 -2.55894 3.18782
rclavicle 1.80149e-015 -9.0447e-015
rhumerus -40.0702 16.3563 -95.5004
rradius 36.7496
rwrist 12.1053
rhand -6.42224 -59.5828
rfingers 7.12502
rthumb 19.4264 -448.632
lclavicle 1.80149e-015 -9.0447e-015
lhumerus -39.8841 -11.003 93.6045
lradius 40.6537
lwrist -13.134
lhand -4.37279 -38.1255
lfingers 7.12502
lthumb 21.3959 -9.28684
rfemur -4.93268 9.74111 25.7032
rtibia 26.5074
rfoot -23.2698 -28.3998
rtoes 4.77771
lfemur -10.85 -20.3431 -23.0461
ltibia 30.5374
lfoot -23.7632 10.3875
ltoes -32.5047
243
root 8.61562 15.1701 41.717 180.281 -10.3753 -179.491
lowerback 7.43046 1.83487 -0.0428414
upperback 0.471486 2.4163 0.382532
thorax -3.69479 1.18648 0.166711
lowerneck -2.94228 -3.93829 -7.78395
upperneck 2.53233 -5.14036 6.09394
head 1.73355 -2.547 3.22421
rclavicle -2.9153e-014 5.76476e-015
rhumerus -39.8654 16.2431 -95.3889
rradius 36.6206
rwrist 12.1454
rhand -6.12396 -59.6843
rfingers 7.12502
rthumb 19.7132 -448.705
lclavicle -2.9153e-014 5.76476e-015
lhumerus -39.7734 -10.9753 93.5727
lradius 40.5959
lwrist -13.1496
lhand -4.21081 -38.1411
lfingers 7.12502
lthumb 21.5515 -9.32017
rfemur -4.95792 9.81947 25.6938
rtibia 26.5504
rfoot -23.2552 -28.442
rtoes 4.36423
lfemur -10.8558 -20.013 -23.0313
ltibia 30.4999
lfoot -23.697 10.1627
ltoes -32.6287
244
root 8.61146 15.1701 41.7128 180.294 -10.5287 -179.505
lowerback 7.3616 1.75078 -0.0849032
upperback 0.53745 2.29792 0.359278
thorax -3.58799 1.1277 0.182275
lowerneck -2.99218 -3.86642 -7.91345
upperneck 2.43688 -5.0455 6.41387
head 1.72071 -2.49554 3.3627
rclavicle 3.42282e-014 1.98785e-015
rhumerus -39.6885 16.0271 -95.338
rradius 36.5391
rwrist 12.129
rhand -6.16395 -59.3677
rfingers 7.12502
rthumb 19.6747 -448.392
lclavicle 3.42282e-014 1.98785e-015
lhumerus -39.7528 -11.2344 93.5549
lradius 40.633
lwrist -13.3317
lhand -4.75878 -37.7563
lfingers 7.12502
lthumb 21.0252 -8.87603
rfemur -4.9298 9.7858 25.7014
rtibia 26.5918
rfoot -23.2221 -28.676
rtoes 3.76256
lfemur -10.8382 -20.1175 -23.0584
ltibia 30.4736
lfoot -23.6907 10.0523
ltoes -32.2414
245
root 8.60523 15.1705 41.7155 180.452 -10.2105 -179.585
lowerback 7.34588 1.82177 -0.202254
upperback 0.484484 2.38351 0.314801
thorax -3.63745 1.17268 0.192605
lowerneck -3.03636 -3.87116 -7.82266
upperneck 2.4175 -5.05591 6.48594
head 1.72268 -2.49842 3.3693
rclavicle -1.70893e-014 -2.78299e-015
rhumerus -39.669 15.9018 -95.3067
rradius 36.6011
rwrist 12.0421
rhand -6.17195 -59.237
rfingers 7.12502
rthumb 19.6671 -448.262
lclavicle -1.70893e-014 -2.78299e-015
lhumerus -39.7891 -11.2961 93.5073
lradius 40.8049
lwrist -12.945
lhand -4.32784 -37.5912
lfingers 7.12502
lthumb 21.4391 -8.75744
rfemur -5.18127 9.84993 25.5159
rtibia 26.6559
rfoot -23.0757 -28.5341
rtoes 2.5205
lfemur -10.9543 -20.0135 -23.1439
ltibia 30.4339
lfoot -23.7881 10.1865
ltoes -32.2338
246
root 8.60332 15.1667 41.7053 180.21 -10.8504 -179.563
lowerback 7.48979 1.54638 -0.314799
upperback 0.543777 2.00684 0.396948
thorax -3.66087 0.986486 0.376708
lowerneck -2.90393 -3.86012 -7.68729
upperneck 2.27013 -5.04339 6.31071
head 1.6379 -2.4943 3.28522
rclavicle 7.12519e-015 9.93923e-016
rhumerus -39.7236 15.9638 -95.2846
rradius 36.6471
rwrist 12.0568
rhand -6.05259 -59.0387
rfingers 7.12502
rthumb 19.7818 -448.052
lclavicle 7.12519e-015 9.93923e-016
lhumerus -39.8718 -11.0034 93.5017
lradius 40.6731
lwrist -13.5144
lhand -5.35884 -37.4358
lfingers 7.12502
lthumb 20.4486 -8.49261
rfemur -4.77132 9.74333 25.6957
rtibia 26.6992
rfoot -23.6738 -28.9043
rtoes 3.81683
lfemur -10.6726 -20.2026 -23.1793
ltibia 30.3838
lfoot -23.7818 9.75111
ltoes -32.8562
247
root 8.58414 15.1735 41.714 180.513 -10.1963 -179.51
lowerback 7.30579 1.67556 -0.0974256
upperback 0.426352 2.20143 0.359306
thorax -3.67174 1.08184 0.198877
lowerneck -2.93336 -3.89052 -7.53659
upperneck 2.37207 -5.08305 6.0933
head 1.66611 -2.51549 3.1793
rclavicle -1.78906e-014 -6.16232e-015
rhumerus -39.7778 15.9832 -95.2639
rradius 36.6987
rwrist 12.1565
rhand -5.97541 -58.8409
rfingers 7.12502
rthumb 19.856 -447.847
lclavicle -1.78906e-014 -6.16232e-015
lhumerus -39.7884 -10.6942 93.406
lradius 40.6829
lwrist -13.339
lhand -4.78842 -37.2726
lfingers 7.12502
lthumb 20.9967 -8.38914
rfemur -5.31932 9.75233 25.4757
rtibia 26.7716
rfoot -23.3688 -28.1526
rtoes 3.91098
lfemur -10.9578 -20.3109 -23.1429
ltibia 30.3285
lfoot -23.7384 10.3796
ltoes -31.9282
248
root 8.58097 15.1695 41.7035 180.214 -10.2806 -179.582
lowerback 7.41858 1.62719 -0.212977
upperback 0.58376 2.11987 0.34384
thorax -3.57501 1.0402 0.255731
lowerneck -2.89366 -3.91511 -7.48283
upperneck 2.3235 -5.11725 6.04368
head 1.64181 -2.533 3.15152
rclavicle 3.30542e-014 5.36719e-015
rhumerus -39.752 15.9126 -95.1879
rradius 36.8017
rwrist 12.1122
rhand -5.98362 -58.8737
rfingers 7.12502
rthumb 19.8481 -447.88
lclavicle 3.30542e-014 5.36719e-015
lhumerus -39.735 -10.8244 93.4192
lradius 40.4269
lwrist -13.9657
lhand -6.36581 -38.2576
lfingers 7.12502
lthumb 19.4807 -9.21349
rfemur -4.88992 9.75508 25.4786
rtibia 26.7868
rfoot -23.4916 -28.0766
rtoes 3.73842
lfemur -10.4792 -20.6839 -23.3988
ltibia 30.2997
lfoot -23.8716 10.5999
ltoes -30.8929
249
root 8.57059 15.1727 41.7019 180.419 -9.98543 -179.616
lowerback 7.21228 1.69747 -0.243472
upperback 0.576582 2.21361 0.357997
thorax -3.46946 1.08832 0.283873
lowerneck -2.92286 -3.95818 -7.57473
upperneck 2.20551 -5.16622 6.09217
head 1.61731 -2.55639 3.18383
rclavicle -5.95733e-015 1.88845e-015
rhumerus -39.7095 16.1154 -95.0839
rradius 36.8806
rwrist 11.6749
rhand -6.11865 -58.9097
rfingers 7.12502
rthumb 19.7183 -447.93
lclavicle -5.95733e-015 1.88845e-015
lhumerus -39.6152 -10.8206 93.4476
lradius 40.4309
lwrist -13.8255
lhand -5.90682 -38.706
lfingers 7.12502
lthumb 19.9219 -9.7071
rfemur -5.16163 9.85973 25.3303
rtibia 26.824
rfoot -23.3825 -27.9202
rtoes 3.0127
lfemur -10.6685 -20.5347 -23.4158
ltibia 30.2804
lfoot -23.8506 10.7712
ltoes -31.0301
250
root 8.56155 15.1728 41.7011 180.467 -9.7036 -179.541
lowerback 7.13476 1.71945 -0.0412159
upperback 0.631774 2.25519 0.299243
thorax -3.35907 1.10512 0.109423
lowerneck -3.02422 -3.93516 -7.61596
upperneck 2.12727 -5.13089 6.2605
head 1.61522 -2.53529 3.24957
rclavicle -3.36692e-015 2.38542e-015
rhumerus -39.5943 16.2353 -95.1537
rradius 36.863
rwrist 11.4567
rhand -6.14683 -58.9699
rfingers 7.12502
rthumb 19.6912 -447.993
lclavicle -3.36692e-015 2.38542e-015
lhumerus -39.4367 -10.8212 93.2702
lradius 40.5205
lwrist -13.4629
lhand -5.04252 -38.5568
lfingers 7.12502
lthumb 20.7526 -9.64648
rfemur -5.23424 9.98993 25.3518
rtibia 26.797
rfoot -23.2113 -27.8769
rtoes 2.88536
lfemur -10.7194 -20.2618 -23.3558
ltibia 30.2883
lfoot -23.7798 10.89
ltoes -31.3337
251
root 8.55364 15.1744 41.7005 180.5 -9.4733 -179.501
lowerback 7.14431 1.74104 -0.104431
upperback 0.636583 2.28078 0.36761
thorax -3.36484 1.11888 0.212523
lowerneck -3.07154 -3.91921 -7.69527
upperneck 2.07008 -5.10003 6.25795
head 1.60541 -2.51941 3.26429
rclavicle 1.47846e-014 -1.49089e-015
rhumerus -39.5511 16.1714 -94.9972
rradius 36.8314
rwrist 11.6546
rhand -5.98237 -58.8277
rfingers 7.12502
rthumb 19.8493 -447.834
lclavicle 1.47846e-014 -1.49089e-015
lhumerus -39.4119 -10.7799 93.3339
lradius 40.5773
lwrist -13.2922
lhand -5.12594 -38.5559
lfingers 7.12502
lthumb 20.6724 -9.63689
rfemur -5.277 9.91667 25.3165
rtibia 26.7324
rfoot -22.9621 -27.793
rtoes 2.26614
lfemur -10.7485 -20.1901 -23.348
ltibia 30.3337
lfoot -23.8451 11.085
ltoes -31.3042
252
root 8.54859 15.1744 41.7001 180.415 -9.39292 -179.434
lowerback 7.27735 1.74108 -0.106002
upperback 0.641898 2.28061 0.407309
thorax -3.43545 1.11821 0.250218
lowerneck -2.99461 -3.97363 -7.51845
upperneck 1.98388 -5.16914 5.91724
head 1.54941 -2.55698 3.11225
rclavicle -4.96527e-014 -2.68359e-015
rhumerus -39.5341 16.0022 -94.8859
rradius 36.7887
rwrist 11.6847
rhand -6.04504 -58.3822
rfingers 7.12502
rthumb 19.7891 -447.395
lclavicle -4.96527e-014 -2.68359e-015
lhumerus -39.3219 -10.7455 93.2793
lradius 40.7081
lwrist -12.398
lhand -3.6742 -38.3235
lfingers 7.12502
lthumb 22.0668 -9.56252
rfemur -5.1893 9.93111 25.3765
rtibia 26.6668
rfoot -22.8237 -27.8761
rtoes 1.53455
lfemur -10.6815 -20.1533 -23.323
ltibia 30.3944
lfoot -23.9454 11.1046
ltoes -31.5598
